<?xml version="1.0" encoding="UTF-8" standalone="no"?>
<!-- Created with Inkscape (http://www.inkscape.org/) -->

<svg
   xmlns:dc="http://purl.org/dc/elements/1.1/"
   xmlns:cc="http://creativecommons.org/ns#"
   xmlns:rdf="http://www.w3.org/1999/02/22-rdf-syntax-ns#"
   xmlns:svg="http://www.w3.org/2000/svg"
   xmlns="http://www.w3.org/2000/svg"
   xmlns:sodipodi="http://sodipodi.sourceforge.net/DTD/sodipodi-0.dtd"
   xmlns:inkscape="http://www.inkscape.org/namespaces/inkscape"
   id="svg3058"
   version="1.1"
   inkscape:version="0.48.4 r9939"
   width="20"
   height="34"
   sodipodi:docname="default-marker-alimentacao.svg"
   inkscape:export-filename="/home/francisco/Dropbox/f5sites/server/itapemapa.com.br/wp-content/themes/twentyfourteen/images/default-marker-alimentacao-gratuito.png"
   inkscape:export-xdpi="90"
   inkscape:export-ydpi="90">
  <metadata
     id="metadata3064">
    <rdf:RDF>
      <cc:Work
         rdf:about="">
        <dc:format>image/svg+xml</dc:format>
        <dc:type
           rdf:resource="http://purl.org/dc/dcmitype/StillImage" />
        <dc:title />
      </cc:Work>
    </rdf:RDF>
  </metadata>
  <defs
     id="defs3062" />
  <sodipodi:namedview
     pagecolor="#ffffff"
     bordercolor="#666666"
     borderopacity="1"
     objecttolerance="10"
     gridtolerance="10"
     guidetolerance="10"
     inkscape:pageopacity="0"
     inkscape:pageshadow="2"
     inkscape:window-width="1366"
     inkscape:window-height="752"
     id="namedview3060"
     showgrid="false"
     inkscape:zoom="6.9411765"
     inkscape:cx="-9.6149553"
     inkscape:cy="29.062543"
     inkscape:window-x="657"
     inkscape:window-y="64"
     inkscape:window-maximized="0"
     inkscape:current-layer="layer1" />
  <g
     inkscape:groupmode="layer"
     id="layer1"
     inkscape:label="cor"
     style="display:inline">
    <path
       style="fill:#ffff00;fill-opacity:1;fill-rule:evenodd;stroke:none"
       d="M 19.063102,9.7261095 C 18.779575,18.69301 12.509067,15.185523 10.897313,30.096597 10.436313,34.36151 10.343325,34.397321 9.7663784,30.016767 7.8208374,15.244978 1.1300305,18.42276 0.91738495,9.7261095 0.79489995,4.7168052 4.9794418,0.65325081 9.9902431,0.65325081 c 5.0108019,0 9.2312179,4.06456009 9.0728589,9.07285869 z"
       id="path3072"
       inkscape:connector-curvature="0"
       sodipodi:nodetypes="ssssss"
       inkscape:export-xdpi="90"
       inkscape:export-ydpi="90" />
    <path
       sodipodi:nodetypes="ssssss"
       inkscape:connector-curvature="0"
       id="path2987"
       d="m 45.715644,9.2939061 c -0.283527,8.9668999 -6.554035,5.4594129 -8.165789,20.3704869 -0.461,4.264913 -0.553988,4.300724 -1.130934,-0.07983 C 34.47338,14.812774 27.782573,17.990556 27.569927,9.2939061 27.447442,4.2846018 31.631984,0.22104742 36.642785,0.22104742 c 5.010802,0 9.231218,4.06456008 9.072859,9.07285868 z"
       style="fill:#ffff00;fill-opacity:1;fill-rule:evenodd;stroke:none" />
    <path
       sodipodi:type="star"
       style="fill:#ffffff;stroke:#000000;stroke-width:1.37103999;stroke-miterlimit:4;stroke-dasharray:none;display:inline"
       id="path2992"
       sodipodi:sides="5"
       sodipodi:cx="6.6271186"
       sodipodi:cy="8.0677967"
       sodipodi:r1="6.8749933"
       sodipodi:r2="3.4374964"
       sodipodi:arg1="0.9566369"
       sodipodi:arg2="1.5849554"
       inkscape:flatsided="false"
       inkscape:rounded="0"
       inkscape:randomized="0"
       d="M 10.588983,13.686441 6.5784485,11.504949 2.5077539,13.57201 3.343153,9.083647 0.11934666,5.8509436 4.6461864,5.2584749 6.7244591,1.1934925 8.6868007,5.31569 13.19505,6.0360962 9.8810044,9.1762231 z"
       inkscape:transform-center-x="-0.024581087"
       inkscape:transform-center-y="-0.50176066"
       transform="matrix(0.81719304,0,0,0.7991984,4.5004613,3.5624655)" />
    <path
       inkscape:export-ydpi="90"
       inkscape:export-xdpi="90"
       sodipodi:nodetypes="ssssss"
       inkscape:connector-curvature="0"
       id="path2994"
       d="m -20.936898,9.7261095 c -0.283527,8.9669005 -6.554035,5.4594135 -8.165789,20.3704875 -0.461,4.264913 -0.553988,4.300724 -1.130935,-0.07983 -1.945541,-14.771789 -8.636347,-11.594007 -8.848993,-20.2906575 -0.122485,-5.0093043 4.062057,-9.07285869 9.072858,-9.07285869 5.010802,0 9.231218,4.06456009 9.072859,9.07285869 z"
       style="fill:#d5cab1;fill-opacity:1;fill-rule:evenodd;stroke:none" />
  </g>
  <g
     inkscape:groupmode="layer"
     id="layer2"
     inkscape:label="modelo de forma"
     style="display:inline" />
  <g
     inkscape:groupmode="layer"
     id="layer3"
     inkscape:label="contorno + original"
     style="display:inline">
    <path
       style="fill:none;stroke:#000000;stroke-width:1.37800002;stroke-linecap:butt;stroke-linejoin:miter;stroke-miterlimit:5;stroke-opacity:1;stroke-dasharray:none;display:inline"
       d="m 19.084723,9.7501076 c -0.283527,8.9669004 -6.554035,5.4594134 -8.165789,20.3704874 -0.461,4.264913 -0.553988,4.300724 -1.130935,-0.07983 C 7.842458,15.268976 1.151652,18.446758 0.939006,9.7501076 0.81652104,4.7408033 5.001063,0.67724868 10.011864,0.67724868 c 5.010802,0 9.231218,4.06456032 9.072859,9.07285892 z"
       id="path3072-1"
       inkscape:connector-curvature="0"
       sodipodi:nodetypes="ssssss" />
  </g>
</svg>
